<svg width="24" height="24" viewBox="0 0 24 24" fill="none" xmlns="http://www.w3.org/2000/svg">
<path d="M9.87798 18.122C11.0492 19.294 12.9487 19.2946 14.1206 18.1234C14.1211 18.1229 14.1215 18.1225 14.122 18.122L17.333 14.911C17.7034 14.5014 17.6716 13.869 17.2619 13.4986C16.8805 13.1537 16.2997 13.1543 15.919 13.5L12.993 16.427L13 1.00003C12.9999 0.447703 12.5522 0 12 0C11.4477 0 11 0.447703 11 0.999984L10.991 16.408L8.08098 13.5C7.69023 13.1095 7.05695 13.1098 6.66648 13.5005C6.27601 13.8913 6.27624 14.5245 6.66699 14.915L9.87798 18.122Z" fill="#F5F5F5"/>
<path d="M23 16C22.4477 16 22 16.4477 22 17V21C22 21.5523 21.5523 22 21 22H3C2.44772 22 2.00002 21.5523 2.00002 21V17C2.00002 16.4477 1.55231 16 1.00003 16C0.447703 16 0 16.4477 0 17V21C0 22.6569 1.34316 24 3 24H21C22.6568 24 24 22.6569 24 21V17C24 16.4477 23.5523 16 23 16Z" fill="#F5F5F5"/>
</svg>
