<svg width="40" height="40" viewBox="0 0 40 40" fill="none" xmlns="http://www.w3.org/2000/svg">
<path fill-rule="evenodd" clip-rule="evenodd" d="M4.46234 0.0591372C2.27991 0.425939 0.405929 2.3438 0.065646 4.55885C0.00924505 4.92597 -0.00999854 9.93211 0.00478617 20.3504L0.026533 35.6045L0.246739 36.2303C0.861439 37.9768 2.03483 39.1502 3.78138 39.7649L4.40719 39.9851H20.0133H35.6193L36.2452 39.7642C38.0509 39.1269 39.296 37.8276 39.8565 35.9956C39.9937 35.547 40 34.8383 40 19.9593V4.39231L39.7798 3.7665C39.1651 2.01995 37.9917 0.84656 36.2452 0.23186L35.6193 0.0116541L20.2479 0.000545998C11.5714 -0.00571208 4.69615 0.0197896 4.46234 0.0591372ZM11.8359 7.60215C12.8357 7.86257 13.6407 8.53899 14.0878 9.49452C14.4028 10.1678 14.4744 11.1104 14.2651 11.8305C13.8426 13.2837 12.5218 14.2895 11.0393 14.287C9.68204 14.2846 8.48487 13.5428 7.9236 12.3563C6.69749 9.76448 9.06985 6.88169 11.8359 7.60215ZM27.1888 15.5455C29.9178 15.8498 31.5514 17.4154 32.1311 20.282C32.3971 21.5974 32.4496 22.7769 32.4504 27.4572L32.4512 31.9826L32.1852 32.2486L31.9193 32.5145L29.7798 32.5142C27.7909 32.514 27.6225 32.5031 27.3882 32.3602C27.2495 32.2756 27.118 32.1262 27.096 32.0281C27.0739 31.9299 27.0443 29.7903 27.0301 27.2734C27.0073 23.2364 26.9884 22.6419 26.8701 22.2278C26.6597 21.492 26.3709 20.9692 25.9888 20.6329C25.5191 20.2194 25.0692 20.0766 24.2361 20.0766C23.6379 20.0766 23.5027 20.1045 23.0831 20.3141C22.5082 20.6014 22.1048 21.0302 21.8068 21.6706C21.311 22.736 21.3172 22.6661 21.2695 27.6038L21.2258 32.1193L21.0477 32.2973C20.8725 32.4725 20.8358 32.4758 18.7627 32.4986C16.4473 32.524 16.2896 32.4983 16.1117 32.0684C16.0448 31.9066 16.0266 29.806 16.042 24.0007L16.0629 16.1518L16.2824 15.9629L16.5019 15.7742H18.6539C19.971 15.7742 20.8638 15.8052 20.9553 15.8542C21.2093 15.9902 21.2974 16.2547 21.3406 17.0116L21.3822 17.7406L21.6835 17.3448C22.7408 15.9554 24.8076 15.28 27.1888 15.5455ZM13.3634 15.9961C13.5114 16.1442 13.6019 16.3331 13.6349 16.5633C13.6621 16.7531 13.6739 20.2878 13.6612 24.4182C13.6392 31.4968 13.6298 31.9397 13.4971 32.1351C13.2494 32.4999 13.0767 32.5238 10.8762 32.4987L8.83024 32.4754L8.61348 32.2585L8.39671 32.0417L8.37481 24.2795C8.36284 20.0103 8.37301 16.4351 8.39757 16.3347C8.42206 16.2342 8.53384 16.067 8.64594 15.9631L8.8498 15.7742H10.9956H13.1414L13.3634 15.9961Z" fill="#FF003C"/>
</svg>
