<svg width="40" height="41" viewBox="0 0 40 41" fill="none" xmlns="http://www.w3.org/2000/svg">
<path d="M4 4.91312H36V36.9131H4V4.91312Z" fill="#F5F5F5"/>
<path fill-rule="evenodd" clip-rule="evenodd" d="M6.17988 0.989148C5.54497 1.06336 4.48344 1.38101 3.91389 1.66727C2.90247 2.17561 1.83053 3.09929 1.21683 3.99126C0.831311 4.5515 0.369315 5.57952 0.176595 6.30555L0 6.97091V33.9768L0.176595 34.6421C0.369315 35.3682 0.831311 36.3962 1.21683 36.9564C1.83053 37.8484 2.90247 38.7721 3.91389 39.2804C4.54129 39.5957 5.50881 39.8684 6.32266 39.9591C7.3719 40.0761 32.6281 40.0761 33.6773 39.9591C36.672 39.6252 39.0459 37.5715 39.8234 34.6421L40 33.9768V6.97091L39.8234 6.30555C39.6307 5.57952 39.1687 4.5515 38.7832 3.99126C38.1695 3.09929 37.0975 2.17561 36.0861 1.66727C35.484 1.36465 34.5157 1.08574 33.7378 0.990792C32.8976 0.888248 7.05659 0.886761 6.17988 0.989148ZM15.4796 10.928C17.505 11.1057 18.851 11.664 20.0054 12.8053C20.7025 13.4944 21.1523 14.3135 21.4182 15.3775C21.5585 15.939 21.577 16.195 21.545 17.1387C21.5032 18.3765 21.3933 18.8727 20.9623 19.769C20.7415 20.228 20.5246 20.5112 19.9658 21.0701C19.3575 21.6784 19.1413 21.8376 18.5102 22.1423C17.2243 22.7633 16.0311 22.9787 13.8768 22.9787H12.5636V28.5394L9.00196 28.4973L8.98207 19.8127C8.96932 14.2511 8.98959 11.1007 9.03843 11.0518C9.08102 11.0093 9.98857 10.9527 11.0935 10.9239C14.2188 10.8422 14.5054 10.8425 15.4796 10.928ZM13.092 14.1856L12.6419 14.2194V19.8693L13.953 19.8245C15.3075 19.7781 15.8985 19.6713 16.5133 19.3618C17.0658 19.0837 17.4736 18.6939 17.705 18.2225C17.9023 17.8207 17.9256 17.6905 17.9256 16.9905C17.9256 16.0281 17.7505 15.5728 17.1719 15.0317C16.537 14.4378 15.8626 14.2246 14.4814 14.1813C13.9648 14.1651 13.3395 14.1671 13.092 14.1856ZM30.6838 15.1557C31.012 15.2014 31.5151 15.317 31.8017 15.4126C32.216 15.5509 32.3339 15.6262 32.3768 15.7798C32.4063 15.886 32.4341 16.5561 32.4384 17.2691C32.4485 18.9522 32.4528 18.9452 31.6344 18.6044C30.3184 18.0566 28.1847 17.8406 27.4307 18.1787C27.1804 18.291 27.0423 18.4126 26.9717 18.5831C26.6985 19.2428 27.2346 19.7128 29.0802 20.432C31.9066 21.5335 32.9551 22.585 33.0548 24.418C33.122 25.6536 32.8214 26.4967 32.005 27.3621C31.1786 28.2381 30.1422 28.6756 28.4661 28.8561C26.8755 29.0273 24.48 28.6771 23.6204 28.1475L23.3659 27.9908V26.4288C23.3659 25.4925 23.3967 24.8476 23.4427 24.8192C23.4849 24.7931 23.7755 24.8946 24.0885 25.0447C26.0729 25.9967 28.9304 26.1466 29.3572 25.3213C29.5164 25.0133 29.5001 24.7582 29.3053 24.5106C29.0575 24.1956 28.6866 23.9899 27.4809 23.4987C25.1131 22.5344 24.0568 21.6727 23.6081 20.3394C23.409 19.7478 23.3905 18.8342 23.5642 18.1674C23.9936 16.5189 25.4899 15.3602 27.5538 15.078C28.1787 14.9926 29.8002 15.0328 30.6838 15.1557Z" fill="black"/>
</svg>
