<svg width="40" height="41" viewBox="0 0 40 41" fill="none" xmlns="http://www.w3.org/2000/svg">
<path d="M2 2.95999H38V38.96H2V2.95999Z" fill="#F5F5F5"/>
<path fill-rule="evenodd" clip-rule="evenodd" d="M0 36.96C0 39.1691 1.79086 40.96 4 40.96H36C38.2091 40.96 40 39.1691 40 36.96V4.95999C40 2.75085 38.2091 0.959991 36 0.959991H4C1.79086 0.959991 0 2.75085 0 4.95999V36.96ZM25.2561 7.15829C27.776 7.79229 30.0516 9.68169 31.112 12.0203C31.638 13.1804 31.8291 14.2343 31.7722 15.66C31.7162 17.0632 31.505 17.9015 30.9506 18.922C30.7394 19.3108 30.707 19.772 30.8619 20.1864L30.9499 20.422C32.0495 23.3644 31.435 26.3985 29.3 28.5678C28.5338 29.3463 28.0801 29.6668 24.7 31.8168C22.6375 33.1287 20.6046 34.3517 20.1825 34.5347C19.1394 34.9867 18.2576 35.1562 16.9378 35.1583C14.566 35.162 12.4504 34.2845 10.763 32.597C9.1071 30.9411 8.3014 29.0307 8.3014 26.76C8.3014 25.4571 8.5505 24.3538 9.0855 23.2865L9.13694 23.1839C9.35182 22.7553 9.37296 22.2552 9.195 21.81C8.3571 19.7143 8.4281 17.4465 9.395 15.4205C9.8174 14.5355 10.7356 13.4005 11.4851 12.8371C12.4326 12.1249 19.1636 7.86509 19.7544 7.60379C21.442 6.85749 23.423 6.69699 25.2561 7.15829ZM22.2402 10.3027C21.9048 10.3789 21.4057 10.5551 21.1311 10.6942C20.0038 11.2655 13.827 15.2967 13.3199 15.7921C11.077 17.9836 11.8328 21.9119 14.7812 23.387C15.7072 23.8502 16.4383 23.9973 17.5 23.9341C18.6328 23.8665 19.0837 23.6767 20.9991 22.4606C22.4776 21.5219 22.652 21.4369 23.1002 21.4369C23.7193 21.4369 24.2359 21.7423 24.5031 22.2661C24.7357 22.7221 24.7508 23.0449 24.5606 23.5C24.3792 23.9343 24.313 23.9818 20.5 26.4173C17.7244 28.1901 17.1827 28.4996 16.7891 28.5379C15.8897 28.6254 15.1 27.9549 15.1 27.104C15.1 26.8574 14.9476 26.6365 14.7171 26.5488L14.275 26.3807C13.8213 26.2081 13.1407 25.8637 12.7627 25.6152C12.3847 25.3667 12.0415 25.1843 12 25.21C11.8485 25.3036 11.7 26.1687 11.7 26.9574C11.7 28.3509 12.2381 29.5278 13.332 30.5267C13.9974 31.1342 14.8793 31.6 15.6781 31.7658C16.4716 31.9306 17.9189 31.8367 18.5617 31.5788C19.4245 31.2325 26.4168 26.7226 26.8947 26.2042C27.7077 25.3222 28.1804 23.8975 28.0588 22.6958C27.7927 20.0662 25.6388 18.1428 22.95 18.1337C21.6814 18.1294 21.0069 18.3879 19.1067 19.6067C17.7711 20.4633 17.4951 20.6021 17.0567 20.6372C16.4663 20.6845 16.0139 20.4393 15.6185 19.8576C15.3349 19.4405 15.3538 18.7377 15.66 18.3175C15.7652 18.1731 17.446 17.0436 19.3951 15.8075C22.8124 13.6403 22.957 13.56 23.4445 13.5604C24.3435 13.561 24.9989 14.1825 24.9996 15.035C24.9998 15.2733 25.0476 15.46 25.1083 15.46C25.3733 15.46 26.7771 16.1002 27.41 16.5096L27.8547 16.7972C27.9855 16.8818 28.161 16.8281 28.2219 16.6847C28.2867 16.5321 28.3411 15.899 28.3443 15.26C28.3511 13.8805 28.1637 13.2776 27.4088 12.2507C26.2799 10.7151 24.0781 9.88529 22.2402 10.3027Z" fill="black"/>
</svg>
