<svg width="24" height="24" viewBox="0 0 24 24" fill="none" xmlns="http://www.w3.org/2000/svg">
<path d="M14.1209 12L23.5605 2.56137C24.1465 1.97541 24.1465 1.02538 23.5605 0.439471C22.9746 -0.14649 22.0245 -0.14649 21.4386 0.439471L12 9.87906L2.56137 0.439471C1.97541 -0.14649 1.02538 -0.14649 0.439471 0.439471C-0.146443 1.02543 -0.14649 1.97546 0.439471 2.56137L9.87906 12L0.439471 21.4386C-0.14649 22.0246 -0.14649 22.9746 0.439471 23.5605C1.02543 24.1464 1.97546 24.1465 2.56137 23.5605L12 14.1209L21.4386 23.5605C22.0245 24.1465 22.9746 24.1465 23.5605 23.5605C24.1464 22.9746 24.1464 22.0245 23.5605 21.4386L14.1209 12Z" fill="#F5F5F5"/>
</svg>
