<svg width="40" height="41" viewBox="0 0 40 41" fill="none" xmlns="http://www.w3.org/2000/svg">
<path d="M4 4.48166H36V36.4817H4V4.48166Z" fill="#F5F5F5"/>
<path fill-rule="evenodd" clip-rule="evenodd" d="M3.2157 0.637086C2.46195 0.834586 1.86484 1.18263 1.28461 1.76295C0.694844 2.35271 0.355156 2.94271 0.155078 3.72498C0.0028125 4.32037 0 4.62693 0 20.4783C0 36.3297 0.0028125 36.6363 0.155078 37.2317C0.355156 38.014 0.694844 38.604 1.28461 39.1937C1.87438 39.7835 2.46438 40.1232 3.24664 40.3233C3.84203 40.4755 4.14859 40.4783 20 40.4783C35.8514 40.4783 36.158 40.4755 36.7534 40.3233C37.5356 40.1232 38.1256 39.7835 38.7154 39.1937C39.3052 38.604 39.6448 38.014 39.8449 37.2317C39.9972 36.6363 40 36.3297 40 20.4783C40 4.62693 39.9972 4.32037 39.8449 3.72498C39.6397 2.92271 39.302 2.34591 38.6759 1.72834C38.0631 1.12388 37.5671 0.841539 36.7512 0.632867C36.1584 0.481305 35.839 0.478414 19.968 0.482633C4.26539 0.486852 3.77219 0.491383 3.2157 0.637086ZM26.1328 6.51209C27.7737 7.06927 28.9573 8.20951 29.5518 9.80584C29.7462 10.3277 29.7944 10.5928 29.8253 11.3105C29.8982 13.0032 29.4452 14.1642 28.2445 15.3615L27.5391 16.0649L27.9297 16.3815C28.7816 17.0718 29.4776 18.1875 29.7313 19.2696C29.8248 19.6683 29.8499 20.0551 29.8252 20.7127C29.7701 22.1802 29.3391 23.1611 28.2779 24.2344C27.3036 25.2198 25.9451 25.7861 24.5475 25.7895C23.4048 25.7922 22.134 25.3839 21.3079 24.7486C21.1034 24.5914 20.9189 24.4627 20.8977 24.4627C20.8766 24.4627 20.8588 25.6843 20.858 27.1776C20.8565 30.3038 20.8184 30.6015 20.2812 31.6893C18.3831 35.5324 12.9426 35.6806 10.801 31.9476C10.4085 31.2634 10.2146 30.5502 10.1752 29.6461C10.1046 28.028 10.5589 26.8057 11.6406 25.7033C11.9629 25.3748 12.2969 25.0684 12.3828 25.0224C12.5351 24.9408 12.5341 24.9354 12.3438 24.8069C11.9825 24.5632 11.135 23.6331 10.8734 23.1933C10.7307 22.9534 10.5201 22.4994 10.4053 22.1842C10.2152 21.6618 10.1966 21.5108 10.1966 20.4783C10.1966 19.4458 10.2152 19.2948 10.4053 18.7725C10.5201 18.4573 10.7307 18.0033 10.8734 17.7634C11.135 17.3236 11.9825 16.3935 12.3438 16.1497C12.5341 16.0213 12.5351 16.0158 12.3828 15.9343C12.2969 15.8883 11.9629 15.5819 11.6406 15.2534C10.5593 14.1513 10.1049 12.9293 10.1747 11.3105C10.2056 10.5928 10.2538 10.3277 10.4482 9.80584C10.755 8.98209 11.1559 8.36318 11.7587 7.78302C12.535 7.03568 13.5429 6.51755 14.5596 6.34318C14.7803 6.30529 17.334 6.28005 20.2344 6.28709L25.5078 6.2999L26.1328 6.51209ZM14.9228 8.06295C13.5602 8.24099 12.3366 9.3456 11.9854 10.7147C11.5406 12.4487 12.4905 14.2487 14.2205 14.9503C14.6219 15.113 14.7881 15.1254 16.8953 15.1502L19.1422 15.1765L19.1016 8.0174L17.2656 8.00709C16.2559 8.00138 15.2016 8.02654 14.9228 8.06295ZM20.9115 8.03045C20.8828 8.05904 20.8594 9.67865 20.8594 11.6295V15.1765L23.1055 15.1501C25.2119 15.1254 25.3782 15.1129 25.7795 14.9503C27.1434 14.3972 28.0027 13.2345 28.1031 11.8065C28.2341 9.94294 26.8718 8.29724 25 8.05802C24.3365 7.97326 20.9912 7.95068 20.9115 8.03045ZM14.9219 16.9369C14.6192 16.9851 13.8298 17.2765 13.5617 17.4392C13.1747 17.674 12.5383 18.3443 12.3179 18.7492C11.263 20.6874 12.1493 23.0144 14.2578 23.8426C14.7032 24.0175 14.8366 24.0281 16.9336 24.0557L19.1406 24.0848V16.8846L17.1289 16.8952C16.0225 16.9011 15.0293 16.9198 14.9219 16.9369ZM23.7584 16.964C21.925 17.3511 20.6252 19.2043 20.9236 21.0055C21.295 23.2465 23.567 24.5861 25.7324 23.8411C26.5037 23.5757 27.3695 22.8343 27.7275 22.1325C28.9186 19.7976 27.3263 17.0694 24.6875 16.9239C24.3652 16.9061 23.9472 16.9242 23.7584 16.964ZM14.5395 25.9145C12.7022 26.4086 11.5356 28.3257 11.9579 30.1571C12.1894 31.1614 12.9697 32.1183 13.9453 32.5943C14.4788 32.8546 14.5161 32.8611 15.4688 32.8611C16.4028 32.8611 16.4681 32.8504 16.969 32.6138C17.8479 32.1986 18.5477 31.4432 18.9109 30.5174C19.0848 30.0741 19.0963 29.9329 19.1242 27.9197L19.1537 25.7908L17.0573 25.796C15.4847 25.7998 14.8556 25.8294 14.5395 25.9145Z" fill="black"/>
</svg>
