<svg width="40" height="41" viewBox="0 0 40 41" fill="none" xmlns="http://www.w3.org/2000/svg">
<path fill-rule="evenodd" clip-rule="evenodd" d="M9.4324 0.998177C7.01192 1.25915 4.80035 2.33609 3.05203 4.10523C1.49744 5.67829 0.606179 7.34685 0.140273 9.55646C0.00931499 10.1776 0 10.9373 0 20.9849C0 31.0325 0.00931499 31.7923 0.140273 32.4134C0.606727 34.6254 1.5005 36.2975 3.05203 37.861C4.62744 39.4486 6.33889 40.3737 8.57135 40.8445C9.19248 40.9754 9.95185 40.9848 19.9998 40.9848C32.0198 40.9848 31.2262 41.0189 32.9344 40.4284C34.4735 39.8965 35.6377 39.16 36.8795 37.9327C38.455 36.3758 39.3884 34.647 39.8594 32.4134C39.9903 31.7923 39.9997 31.0329 39.9997 20.9849C39.9997 9.0504 40.0315 9.84186 39.4843 8.17659C38.9631 6.59069 38.1844 5.35031 36.9094 4.07533C35.3612 2.52709 33.8091 1.67003 31.624 1.15684C30.9264 0.993011 30.8152 0.991289 20.3129 0.980017C14.4793 0.973754 9.58309 0.981895 9.4324 0.998177ZM27.7101 8.20892C30.2342 8.91772 32.111 10.8083 32.7776 13.3138L32.9547 13.9791V20.9849V27.9907L32.7776 28.6561C32.1059 31.1809 30.1957 33.091 27.671 33.7627L27.0056 33.9398H19.9998C13.577 33.9398 12.9496 33.9284 12.4595 33.8025C9.8526 33.133 7.90365 31.218 7.22201 28.6561L7.04495 27.9907V20.9849V13.9791L7.22201 13.3138C7.93809 10.6224 10.0956 8.60523 12.7853 8.11209C13.2757 8.02223 14.6376 8.00493 20.2347 8.01761C27.0733 8.03311 27.0849 8.03334 27.7101 8.20892ZM12.8924 10.4975C12.0356 10.722 11.4289 11.0772 10.7605 11.7456C10.0824 12.4236 9.73495 13.0241 9.50872 13.9084C9.36086 14.4865 9.35413 14.796 9.35413 20.9849C9.35413 27.1738 9.36086 27.4833 9.50872 28.0615C9.73495 28.9457 10.0824 29.5463 10.7605 30.2243C11.4385 30.9023 12.039 31.2498 12.9233 31.476C13.5014 31.6239 13.8109 31.6306 19.9998 31.6306C26.1887 31.6306 26.4982 31.6239 27.0764 31.476C27.9606 31.2498 28.5612 30.9023 29.2392 30.2243C29.9172 29.5463 30.2647 28.9457 30.4909 28.0615C30.6388 27.4833 30.6455 27.1738 30.6455 20.9849C30.6455 14.796 30.6388 14.4865 30.4909 13.9084C30.2647 13.0241 29.9172 12.4236 29.2392 11.7456C28.5612 11.0675 27.9606 10.72 27.0764 10.4938C26.4974 10.3458 26.1964 10.3394 19.9677 10.3435C13.8227 10.3476 13.4321 10.3561 12.8924 10.4975ZM27.2816 13.2365C27.629 13.4137 27.9058 13.8647 27.9058 14.2531C27.9058 14.8487 27.3273 15.4272 26.7317 15.4272C26.3433 15.4272 25.8923 15.1504 25.7151 14.8031C25.4168 14.2185 25.5912 13.6042 26.1519 13.2648C26.5267 13.038 26.8753 13.0292 27.2816 13.2365ZM21.1489 15.237C22.3217 15.4792 23.3029 16.0121 24.1423 16.8629C24.9106 17.6415 25.4049 18.4924 25.6912 19.5291C25.872 20.184 25.872 21.7859 25.6912 22.4408C25.0867 24.6299 23.3434 26.2796 21.1575 26.7311C17.0951 27.5702 13.4188 23.8944 14.2527 19.8271C14.9013 16.6636 18.0168 14.59 21.1489 15.237ZM19.1747 17.5717C18.5263 17.7291 18.0313 18.0127 17.5285 18.5145C16.139 19.9013 16.139 22.0709 17.5285 23.4541C18.9251 24.8444 21.0863 24.8453 22.469 23.4563C23.8592 22.0598 23.8601 19.9026 22.4712 18.5136C21.5777 17.6201 20.3817 17.2784 19.1747 17.5717Z" fill="#FF003C"/>
</svg>
