<svg width="40" height="41" viewBox="0 0 40 41" fill="none" xmlns="http://www.w3.org/2000/svg">
<rect width="40" height="40.96" rx="4" fill="black"/>
<path fill-rule="evenodd" clip-rule="evenodd" d="M8.02735 8.23152C8.04233 8.35883 8.4886 13.4638 9.01902 19.5759C9.54939 25.688 9.99196 30.7327 10.0025 30.7863C10.0199 30.8749 10.4784 30.9788 15.0108 31.9219L20 32.96L24.9892 31.9219C29.5216 30.9788 29.9801 30.8749 29.9975 30.7863C30.008 30.7327 30.4506 25.688 30.981 19.5759C31.5114 13.4638 31.9577 8.35883 31.9727 8.23152L32 8H20H8L8.02735 8.23152ZM19.005 20.3192C19.0163 28.0992 19.0131 28.4711 18.9338 28.4711C18.8102 28.4711 13.774 27.4172 13.7429 27.3848C13.7201 27.3612 13.4 23.925 13.398 23.6823C13.3973 23.6038 13.4758 23.597 14.396 23.597H15.3947L15.4847 24.6328L15.5748 25.6685L16.2889 25.8205L17.003 25.9725V19.0568V12.141L17.9981 12.1542L18.9932 12.1673L19.005 20.3192ZM27.5726 12.5451C27.5575 12.7662 27.5196 13.2378 27.4884 13.593L27.4316 14.2388H25.2143H22.997V16.8464V19.4541H24.9872C26.0818 19.4541 26.9769 19.4596 26.9765 19.4663C26.8995 20.4976 26.2759 27.3653 26.2575 27.3845C26.2262 27.4171 21.1907 28.4711 21.0664 28.4711C20.9895 28.4711 20.9834 28.3941 20.9834 27.4306V26.39L22.7043 26.0293L24.4252 25.6685L24.5976 23.7433C24.6925 22.6844 24.7715 21.7467 24.7733 21.6596L24.7764 21.5012H22.8799H20.9834V16.8546C20.9834 14.2989 20.9974 12.1933 21.0146 12.1755C21.0318 12.1576 22.5205 12.143 24.3229 12.143H27.6L27.5726 12.5451Z" fill="white"/>
</svg>
