<svg width="40" height="41" viewBox="0 0 40 41" fill="none" xmlns="http://www.w3.org/2000/svg">
<path d="M4 5.95999H36V37.96H4V5.95999Z" fill="#F5F5F5"/>
<path fill-rule="evenodd" clip-rule="evenodd" d="M0 36.96C0 39.1691 1.79086 40.96 4 40.96H36C38.2091 40.96 40 39.1691 40 36.96V4.95999C40 2.75085 38.2091 0.959991 36 0.959991H4C1.79086 0.959991 0 2.75085 0 4.95999V36.96ZM21.3639 7.25148C22.4972 7.54663 23.3841 8.30335 23.9085 9.42265C24.3441 10.3521 24.5266 11.2274 24.6198 12.835C24.7176 14.5231 24.8477 15.408 25.0759 15.938C25.1726 16.1623 25.7383 17.0412 26.3332 17.8912C27.5684 19.6561 28.7356 21.5631 29.0752 22.3712C29.535 23.4657 29.6319 24.4517 29.4084 25.7629L29.3612 26.0399C29.3125 26.3255 29.3714 26.619 29.5266 26.8637C29.8091 27.3091 29.9209 27.6677 29.9214 28.1305C29.9223 28.7678 30.2898 29.265 31.0373 29.6402C31.6906 29.968 31.8921 30.3176 31.7231 30.8297C31.592 31.2269 31.3213 31.4356 29.9341 32.2085C28.2673 33.1372 27.7768 33.4512 27.0548 34.0514C26.3855 34.6079 25.9577 34.7889 25.3181 34.7864C24.6325 34.7837 24.002 34.4136 23.7052 33.8395C23.5841 33.6055 23.3554 33.5375 22.1484 33.377C21.2613 33.2591 19.1477 33.3236 18.095 33.5007C17.3246 33.6304 17.322 33.6316 16.9193 34.0441C16.5816 34.3899 16.4438 34.4735 16.0757 34.5559C15.488 34.6874 15.0463 34.5966 13.1641 33.9569C12.0527 33.5793 11.387 33.4036 10.5145 33.2576C9.22477 33.0419 8.6868 32.8509 8.39664 32.5061C8.15812 32.2226 8.15789 32.1738 8.39156 31.3937C8.66203 30.4905 8.69039 30.2012 8.55648 29.71C8.24789 28.578 8.48383 28.1749 9.60938 27.9118C10.5163 27.6997 11.0041 27.3929 11.3457 26.8194C11.4353 26.669 11.6246 26.4229 11.7663 26.2725C12.0127 26.0109 12.0205 25.984 11.9459 25.6532C11.8466 25.2123 11.9484 24.7188 12.3011 23.9333C12.4469 23.6085 12.784 22.7451 13.0502 22.0147C13.6808 20.2847 13.9703 19.733 14.9155 18.46C16.2501 16.6625 16.2431 16.6748 16.3343 15.9476C16.3933 15.4771 16.3876 14.8905 16.313 13.776C16.0836 10.3448 16.2484 9.27405 17.1552 8.3046C18.0264 7.37327 19.967 6.88765 21.3639 7.25148ZM20.7032 10.8092C20.1722 11.0323 19.8175 11.6394 19.8165 12.3272C19.8155 12.883 19.9167 13.1032 20.2218 13.2095C20.3311 13.2477 20.4451 13.1655 20.4435 13.0497L20.4409 12.8685C20.4364 12.5595 20.4774 12.3918 20.5965 12.2319C21.2491 11.3553 22.2226 12.4984 21.6021 13.4127C21.4359 13.6575 21.4252 13.7066 21.5292 13.7465C21.7404 13.8275 22.023 13.6048 22.226 13.1974C22.6064 12.4341 22.4281 11.4455 21.8274 10.9873C21.5304 10.7607 21.0134 10.6788 20.7032 10.8092ZM17.3441 11.0949C17.1781 11.1791 16.9945 11.3712 16.8754 11.585C16.4954 12.2675 16.6724 13.5123 17.2022 13.8834C17.3622 13.9954 17.3888 13.9918 17.5557 13.835L17.5576 13.8332C17.6416 13.7543 17.6165 13.6151 17.5103 13.5705C17.3505 13.5033 17.2445 13.3708 17.1478 13.1176C16.8705 12.3914 17.2636 11.76 17.8109 12.0529C18.0123 12.1607 18.2342 12.7773 18.1761 13.0678C18.1584 13.1563 18.2555 13.2228 18.3316 13.1742L18.4199 13.1179C18.7075 12.9344 18.7109 12.9263 18.7045 12.4344C18.6911 11.3945 18.0323 10.7459 17.3441 11.0949ZM18.6719 13.7576C18.1348 14.11 17.2656 14.8576 17.2656 14.9673C17.2656 15.2534 18.3696 16.1937 18.8458 16.3132C19.1006 16.3771 19.4271 16.2357 20.6836 15.517C22.1279 14.6909 22.1101 14.5941 20.3906 13.9217C19.2788 13.487 19.109 13.4709 18.6719 13.7576ZM21.2694 15.8544C20.8076 16.097 20.1382 16.4486 19.782 16.6356C19.4015 16.8353 19.0308 16.9749 18.8835 16.9739C18.503 16.9713 18.0531 16.7323 17.4474 16.211C16.9748 15.8041 16.9043 15.7655 16.9359 15.9305C17.0338 16.443 16.5979 17.6935 16.0605 18.4415C15.7524 18.8704 15.561 19.3028 15.1271 20.5508C14.9738 20.9917 14.6567 21.7476 14.4224 22.2305C13.8857 23.3369 13.7202 24.0555 13.7652 25.0859C13.8156 26.2379 13.9808 26.4776 15.654 27.8269C16.733 28.697 17.0723 29.0512 17.1454 29.3836C17.2223 29.7337 17.0153 30.1516 16.6876 30.3079C16.5475 30.3747 16.5063 30.5546 16.6033 30.6758L16.6379 30.7189C16.7614 30.873 17.0392 31.1888 17.2552 31.4208C17.5048 31.6887 17.8581 31.8356 18.2241 31.8235L18.9607 31.7993C20.4288 31.7509 21.1738 31.6146 21.9385 31.2544C22.5135 30.9837 23.4582 30.2561 23.802 29.8192C23.9576 29.6215 24.0455 29.3789 24.0526 29.1273L24.0798 28.1618C24.1265 26.5046 24.1707 26.4035 24.8665 26.3664C25.1242 26.3526 25.3409 26.1682 25.3956 25.9159L25.3995 25.8976C25.55 25.2029 25.5316 23.4529 25.3665 22.7661C25.1206 21.7436 24.4245 19.9164 23.4578 17.7569C22.6294 15.9061 22.3597 15.4131 22.1752 15.4131C22.1389 15.4131 21.7312 15.6116 21.2694 15.8544ZM12.1247 26.9561C12.0413 27.0742 11.8845 27.3467 11.7762 27.5616C11.668 27.7764 11.5141 28.0101 11.4342 28.0808C11.2963 28.203 10.635 28.46 10.4585 28.46C10.4129 28.46 10.1846 28.5155 9.95117 28.5834C9.34484 28.7597 9.27523 28.8961 9.39 29.6835C9.47391 30.2595 9.4668 30.3666 9.30437 30.9712C9.08508 31.7873 9.10477 32.0559 9.39422 32.194C9.51219 32.2503 10.0755 32.3797 10.646 32.4816C12.0141 32.7259 11.9996 32.722 13.1058 33.1541C14.2417 33.598 15.3195 33.8834 15.5668 33.8059C16.0458 33.6559 16.5625 32.9824 16.5625 32.5082C16.5625 32.0703 16.3942 31.7276 15.7791 30.9128C15.4793 30.5156 14.8955 29.6355 14.482 28.9572C14.0684 28.2787 13.6027 27.5707 13.447 27.3837C12.9025 26.7297 12.3992 26.5669 12.1247 26.9561ZM25.0105 27.3448C24.9659 27.4243 24.9522 27.9455 24.9768 28.6144C25.012 29.5701 24.9916 29.8969 24.8473 30.6866C24.7531 31.2022 24.6447 31.8125 24.6063 32.0429C24.4747 32.8337 24.7827 33.5776 25.3384 33.8114C25.791 34.0016 26.4345 33.7036 27.3487 32.8802C27.6488 32.6099 28.2363 32.2012 28.6542 31.9719C29.0721 31.7426 29.7107 31.3921 30.0734 31.193C31.0448 30.6596 31.0775 30.5219 30.3457 30.0455C29.4536 29.4646 29.2819 29.2134 29.1819 28.3428C29.1523 28.085 29.0755 27.7922 29.0113 27.6922C28.9569 27.6073 28.8328 27.6077 28.7788 27.6928L28.6743 27.8576C28.3948 28.2983 28.024 28.5812 27.4711 28.7755C26.6016 29.0811 25.959 28.9141 25.6445 28.3009C25.5345 28.0862 25.4688 27.8183 25.4688 27.5841C25.4688 27.2391 25.4538 27.21 25.2773 27.21C25.172 27.21 25.052 27.2707 25.0105 27.3448Z" fill="black"/>
</svg>
