<svg width="40" height="41" viewBox="0 0 40 41" fill="none" xmlns="http://www.w3.org/2000/svg">
<path d="M2 2.95999H38V38.96H2V2.95999Z" fill="#F5F5F5"/>
<path fill-rule="evenodd" clip-rule="evenodd" d="M1.83569 1.04498C1.13573 1.23457 0.490881 1.79496 0.16728 2.49477L0 2.85657V39.0992L0.169159 39.4653C0.408689 39.9836 0.9218 40.508 1.43703 40.7611L1.87867 40.9779H38.1213L38.563 40.7611C39.0782 40.508 39.5913 39.9836 39.8308 39.4653L40 39.0992V2.85657L39.7832 2.41492C39.5301 1.8997 39.0057 1.38659 38.4874 1.14706L38.1213 0.977897L20.1566 0.963181C6.1283 0.951674 2.11374 0.9696 1.83569 1.04498ZM10.2265 14.7772C12.2131 15.3172 13.2681 16.6398 13.2681 18.5904C13.2681 21.2945 11.3348 22.8658 8.00391 22.8691L7.00587 22.87V27.3967H4.10959V14.8036L4.4692 14.7496C5.4 14.61 6.16376 14.5746 7.82779 14.5938C9.36297 14.6116 9.71632 14.6386 10.2265 14.7772ZM34.3897 14.7862C36.3755 15.3687 37.3854 16.6546 37.3731 18.5851C37.3596 20.7236 36.2266 22.1083 34.0316 22.6691C33.4059 22.8289 33.0739 22.8649 32.1918 22.8679L31.1155 22.8717V27.3967H28.2192V14.8036L28.5788 14.7496C29.519 14.6087 30.2787 14.5741 31.9765 14.5951C33.5859 14.6151 33.8878 14.639 34.3897 14.7862ZM18.0431 19.5689H22.818V14.6374H25.7143V27.3967H22.818V22.0738H18.0431V27.3967H15.1468V14.6374H18.0431V19.5689ZM7.14145 16.8051C7.01323 16.8386 7.00462 16.9798 7.02403 18.7334L7.04501 20.6256L7.94521 20.6212C8.76102 20.6171 8.88728 20.5966 9.2919 20.4019C10.0477 20.0383 10.3887 19.4919 10.3984 18.6289C10.4084 17.7342 10.0032 17.1536 9.17534 16.8764C8.82027 16.7574 7.50168 16.7112 7.14145 16.8051ZM31.251 16.8051C31.1228 16.8386 31.1142 16.9798 31.1336 18.7334L31.1546 20.6256L31.811 20.6486C33.3824 20.7034 34.2764 20.1448 34.4946 18.9719C34.6737 18.0087 34.1993 17.1712 33.3122 16.8847C32.9196 16.7579 31.6241 16.7079 31.251 16.8051Z" fill="black"/>
</svg>
