<svg width="40" height="41" viewBox="0 0 40 41" fill="none" xmlns="http://www.w3.org/2000/svg">
<rect y="0.549133" width="40" height="39.8617" rx="4" fill="black"/>
<path d="M31.1509 11.0768L26.2089 8.69732C25.6369 8.42195 24.9532 8.53813 24.5043 8.98701L8.32585 23.738C7.89065 24.1348 7.89121 24.8199 8.32688 25.216L9.64842 26.4173C10.0046 26.7412 10.5411 26.765 10.9247 26.4741L30.4073 11.6942C31.0609 11.1984 31.9997 11.6645 31.9997 12.4849V12.4275C31.9997 11.8517 31.6698 11.3267 31.1509 11.0768Z" fill="white"/>
<path d="M31.1509 29.8832L26.2089 32.2628C25.6369 32.5381 24.9532 32.4219 24.5043 31.9731L8.32585 17.2221C7.89065 16.8254 7.89121 16.1402 8.32688 15.7441L9.64842 14.5427C10.0046 14.2188 10.5411 14.195 10.9247 14.486L30.4073 29.2659C31.0609 29.7617 31.9997 29.2956 31.9997 28.4751V28.5326C31.9997 29.1084 31.6698 29.6334 31.1509 29.8832Z" fill="white"/>
<path d="M26.2092 32.2631C25.637 32.5383 24.9533 32.422 24.5043 31.973C25.0575 32.5262 26.0034 32.1344 26.0034 31.352V9.60801C26.0034 8.82567 25.0575 8.43385 24.5043 8.98701C24.9533 8.53803 25.637 8.42167 26.2092 8.69684L31.1503 11.0732C31.6696 11.3229 31.9998 11.848 31.9998 12.4241V28.536C31.9998 29.1121 31.6696 29.6373 31.1503 29.887L26.2092 32.2631Z" fill="white"/>
</svg>
