<svg width="40" height="41" viewBox="0 0 40 41" fill="none" xmlns="http://www.w3.org/2000/svg">
<path fill-rule="evenodd" clip-rule="evenodd" d="M6.17314 1.10501C4.64853 1.38087 3.44143 2.00665 2.28705 3.11977C1.42096 3.95493 0.771586 4.96172 0.402211 6.04203C-0.0104444 7.24875 2.44107e-05 6.85961 2.44107e-05 20.9851C2.44107e-05 35.1107 -0.0104444 34.7215 0.402211 35.9282C1.12643 38.0462 2.93893 39.8587 5.05689 40.5829C6.11447 40.9446 6.66236 40.9851 10.4934 40.9851C13.9152 40.9851 14.1069 40.9775 14.4089 40.8311C15.05 40.52 15.0912 40.3004 15.0278 37.529L14.9765 35.2839L14.6563 35.3415C14.4801 35.3732 13.7031 35.3978 12.9297 35.396C10.9392 35.3915 10.1512 35.1561 9.21056 34.2853C8.70337 33.8158 8.65244 33.7365 8.15306 32.6379C7.57603 31.3686 6.80345 30.3756 6.11658 30.0204C5.81416 29.864 5.31252 29.2861 5.31252 29.0941C5.31252 28.7879 6.22916 28.6936 6.9197 28.9288C7.88384 29.2572 8.6472 29.8901 9.33056 30.9277C10.2041 32.2541 11.1902 32.9335 12.3384 33C13.0295 33.04 13.8584 32.9261 14.5655 32.694L15.0665 32.5295L15.1966 31.9447C15.3443 31.2806 15.7535 30.439 16.1055 30.0751L16.3434 29.829L16.1209 29.7871C15.9986 29.764 15.7227 29.7236 15.5078 29.6972C13.1895 29.4125 10.924 28.4154 9.63994 27.1147C8.85572 26.3204 8.33158 25.4344 7.88736 24.1525C7.42533 22.8189 7.31517 22.0548 7.31275 20.1648C7.31056 18.507 7.31814 18.4212 7.52611 17.743C7.88447 16.5741 8.459 15.4977 9.06954 14.8512L9.29197 14.6156L9.13822 14.1218C8.90541 13.3737 8.81759 12.3943 8.90962 11.5718C8.95298 11.1847 9.00244 10.8152 9.01962 10.7508C9.03681 10.6863 9.14205 10.3274 9.25353 9.95328C9.45158 9.28828 9.46244 9.27172 9.73189 9.22117C10.5021 9.07672 12.7329 9.90195 14.4316 10.9598L14.9961 11.3114L15.7207 11.1521C17.4194 10.7787 18.3662 10.6727 20 10.6727C21.6338 10.6727 22.5806 10.7787 24.2793 11.1521L25.0039 11.3114L25.5684 10.9656C27.4548 9.81023 29.3428 9.09219 30.1644 9.21766L30.5241 9.27258L30.7313 9.95304C31.0508 11.0023 31.113 11.4807 31.0739 12.5867C31.0476 13.3307 30.9939 13.7379 30.873 14.109L30.708 14.6156L30.9305 14.8512C31.5483 15.5055 32.127 16.5953 32.466 17.743C32.6384 18.3266 32.6805 18.6526 32.7139 19.6624C32.8192 22.846 31.9618 25.5383 30.3382 27.1224C29.0318 28.3971 27.1779 29.251 24.9219 29.6172C24.5137 29.6834 24.0642 29.7565 23.9231 29.7795L23.6666 29.8213L23.9296 30.1286C24.3143 30.5779 24.5906 31.1272 24.7804 31.8191C24.9382 32.3946 24.9507 32.6622 24.9936 36.3794C25.0456 40.8967 25.0064 40.6538 25.7171 40.8648C26.0553 40.9653 26.6976 40.9851 29.6133 40.9851C33.3298 40.9851 33.8908 40.9428 34.9431 40.5829C37.0579 39.8598 38.8747 38.043 39.5978 35.9282C40.0104 34.7215 40 35.1107 40 20.9851C40 6.85961 40.0104 7.24875 39.5978 6.04203C38.8736 3.92407 37.0611 2.11157 34.9431 1.38735C33.7344 0.973993 34.138 0.984618 19.9312 0.992196C9.21751 0.997977 6.64869 1.01899 6.17314 1.10501ZM7.10244 29.4272C7.01181 29.4835 7.02228 29.5258 7.1615 29.6653C7.34963 29.8539 7.6058 29.8172 7.56439 29.6075C7.53267 29.4469 7.249 29.3362 7.10244 29.4272ZM7.8972 30.1569C7.77267 30.307 8.11884 30.7217 8.30798 30.6491C8.4797 30.5833 8.47275 30.3381 8.29462 30.1769C8.12009 30.019 8.01603 30.0137 7.8972 30.1569ZM8.67658 31.1748C8.60439 31.2618 8.61025 31.3373 8.70314 31.5169C8.8508 31.8025 9.02103 31.8748 9.17744 31.7184C9.33306 31.5628 9.32853 31.5152 9.13494 31.2691C8.95345 31.0383 8.81369 31.0096 8.67658 31.1748ZM9.68009 32.3036C9.50611 32.4444 9.50455 32.4561 9.63384 32.6535C9.77103 32.8629 10.0829 32.9929 10.2299 32.9019C10.3593 32.822 10.3267 32.5059 10.1758 32.3763C9.93064 32.1658 9.86259 32.1558 9.68009 32.3036ZM10.9896 33.1466C10.9609 33.1752 10.9375 33.2779 10.9375 33.3749C10.9375 33.5074 11.0061 33.5738 11.2142 33.6425C11.3663 33.6926 11.5421 33.714 11.6048 33.69C11.7717 33.626 11.7459 33.2708 11.5677 33.1754C11.3973 33.0842 11.0684 33.0678 10.9896 33.1466ZM14.1563 33.2664C13.8844 33.5383 14.1938 33.8527 14.5954 33.7127C14.8647 33.6188 14.9657 33.4368 14.8356 33.2799C14.7259 33.1477 14.2838 33.1389 14.1563 33.2664ZM12.7215 33.3815C12.5663 33.4226 12.4875 33.5961 12.5502 33.7593C12.6595 34.0443 13.3594 33.9573 13.3594 33.6586C13.3594 33.3813 13.1181 33.2765 12.7215 33.3815Z" fill="#FF003C"/>
</svg>
