<svg width="40" height="41" viewBox="0 0 40 41" fill="none" xmlns="http://www.w3.org/2000/svg">
<rect y="0.480011" width="40" height="40" rx="4" fill="black"/>
<path fill-rule="evenodd" clip-rule="evenodd" d="M19.3509 8.55582C17.8672 8.91497 16.5018 10.6657 15.6203 13.3392C15.4678 13.8017 15.4051 13.9294 15.3308 13.9294C15.2787 13.9294 15.0032 13.8812 14.7187 13.8223C13.3115 13.5306 11.7984 13.4712 10.8171 13.6689C9.5272 13.9289 8.74175 14.4592 8.29624 15.3707C7.82496 16.3349 7.91322 17.3919 8.58104 18.7828C9.02445 19.7062 9.5442 20.4613 10.3959 21.4193L10.8273 21.9047L10.3959 22.39C9.5442 23.348 9.02445 24.1031 8.58104 25.0266C7.91211 26.4198 7.82481 27.4742 8.29823 28.4427C8.77139 29.4106 9.8459 30.0565 11.2559 30.2204C12.1349 30.3227 13.5641 30.2264 14.7187 29.9871C15.0032 29.9282 15.2787 29.8799 15.3308 29.8799C15.4051 29.8799 15.4678 30.0077 15.6203 30.4702C16.5086 33.1643 17.8715 34.9016 19.3749 35.256C21.3651 35.7251 23.2351 33.9364 24.3779 30.4702C24.5305 30.0077 24.5931 29.8799 24.6674 29.8799C24.7195 29.8799 24.995 29.9282 25.2795 29.9871C26.4341 30.2264 27.8633 30.3227 28.7423 30.2204C30.8555 29.9747 32.147 28.6486 31.9866 26.8892C31.8673 25.5808 31.0238 23.989 29.6023 22.39L29.1709 21.9047L29.6023 21.4193C30.454 20.4613 30.9738 19.7062 31.4172 18.7828C32.0872 17.3872 32.1736 16.3354 31.6979 15.3625C31.1036 14.1469 29.8293 13.5589 27.7907 13.5598C26.9187 13.5601 26.1637 13.639 25.2795 13.8223C24.995 13.8812 24.7195 13.9294 24.6674 13.9294C24.5931 13.9294 24.5305 13.8017 24.3779 13.3392C23.8912 11.8629 23.2719 10.6893 22.5094 9.79775C21.6025 8.73757 20.4584 8.2877 19.3509 8.55582ZM20.4524 10.1776C21.3188 10.5396 22.209 11.8877 22.8579 13.8205C22.9589 14.1213 23.0328 14.3762 23.0222 14.3868C23.0116 14.3974 22.6517 14.5324 22.2225 14.6867C21.7932 14.8411 21.1294 15.0998 20.7475 15.2617C20.3654 15.4235 20.0287 15.556 19.9991 15.556C19.9695 15.556 19.6328 15.4235 19.2507 15.2617C18.8688 15.0998 18.205 14.8411 17.7757 14.6867C17.3465 14.5324 16.9866 14.3974 16.976 14.3868C16.9654 14.3762 17.0393 14.1213 17.1403 13.8205C17.7852 11.8997 18.669 10.5556 19.5338 10.18C19.7644 10.0799 20.2158 10.0788 20.4524 10.1776ZM13.3376 15.2121C13.8759 15.28 14.957 15.4809 14.9965 15.5203C15.0049 15.5288 14.9443 15.9003 14.8619 16.346C14.7795 16.7917 14.6695 17.5144 14.6176 17.9521L14.5231 18.7478L13.8657 19.2375C13.5041 19.5069 12.9402 19.9574 12.6126 20.2388C12.2849 20.5201 11.9982 20.7504 11.9755 20.7504C11.9261 20.7504 11.4233 20.185 11.0191 19.6748C9.70423 18.0152 9.26292 16.4921 9.89847 15.8073C10.1631 15.5221 10.7199 15.2754 11.2879 15.1917C11.7627 15.1218 12.6953 15.1311 13.3376 15.2121ZM29.0693 15.2609C30.0528 15.5366 30.4329 15.9863 30.373 16.8029C30.314 17.6073 29.8345 18.5952 28.9791 19.6748C28.5749 20.185 28.0721 20.7504 28.0227 20.7504C28 20.7504 27.7133 20.5201 27.3856 20.2388C27.058 19.9574 26.4941 19.5069 26.1325 19.2375L25.4751 18.7478L25.3807 17.9521C25.3287 17.5144 25.2187 16.7917 25.1363 16.346C25.0539 15.9003 24.9933 15.5288 25.0017 15.5203C25.0353 15.4869 26.0898 15.2826 26.5839 15.2139C27.2491 15.1215 28.6676 15.1483 29.0693 15.2609ZM17.0415 16.1094C17.2397 16.1829 17.5624 16.3034 17.7586 16.3773L18.1153 16.5115L17.2864 16.9832C16.8305 17.2426 16.4274 17.4796 16.3906 17.5098C16.3538 17.54 16.313 17.554 16.2999 17.5409C16.279 17.52 16.4169 16.6233 16.5145 16.1462C16.5336 16.0525 16.5789 15.9757 16.6152 15.9757C16.6514 15.9757 16.8433 16.0359 17.0415 16.1094ZM23.4838 16.1462C23.5813 16.6233 23.7192 17.52 23.6983 17.5409C23.6852 17.554 23.6444 17.54 23.6076 17.5098C23.5708 17.4796 23.1677 17.2426 22.7118 16.9832L21.8829 16.5115L22.2396 16.3771C22.4358 16.3032 22.7498 16.1843 22.9373 16.1129C23.3953 15.9385 23.4419 15.9414 23.4838 16.1462ZM20.9666 17.8476C21.9563 18.3779 22.4982 18.6948 23.3929 19.2662L23.9271 19.6074L23.9669 19.9559C24.0187 20.4083 24.0187 23.401 23.9669 23.8535L23.9271 24.202L23.3929 24.5432C22.4966 25.1156 21.9559 25.4316 20.9567 25.9671L19.9991 26.4802L19.0416 25.9671C18.0423 25.4316 17.5016 25.1156 16.6053 24.5432L16.0711 24.202L16.0313 23.8535C15.9795 23.401 15.9795 20.4083 16.0313 19.9559L16.0711 19.6074L16.6053 19.2665C16.8992 19.079 17.3048 18.8245 17.5068 18.7008C17.8724 18.4772 19.9519 17.3402 19.996 17.34C20.0087 17.34 20.4455 17.5684 20.9666 17.8476ZM19.4435 19.3066C18.0927 19.6006 17.1466 20.972 17.3728 22.3086C17.567 23.4564 18.4814 24.3574 19.6318 24.5344C21.3335 24.7962 22.8906 23.2391 22.6288 21.5374C22.4589 20.433 21.614 19.534 20.5302 19.3042C20.1086 19.2149 19.8628 19.2154 19.4435 19.3066ZM14.3737 22.4263L14.3587 22.9479L13.9479 22.6123C13.722 22.4277 13.4445 22.193 13.3313 22.0907L13.1254 21.9047L13.3313 21.7187C13.4445 21.6164 13.722 21.3817 13.9479 21.1971L14.3587 20.8614L14.3737 21.3831C14.3819 21.6699 14.3819 22.1394 14.3737 22.4263ZM26.5151 21.5813C26.7081 21.7447 26.866 21.8902 26.866 21.9047C26.866 21.9332 26.3301 22.3935 25.8887 22.7441L25.6132 22.963V21.9047V20.8464L25.8887 21.0652C26.0402 21.1856 26.3221 21.4178 26.5151 21.5813ZM12.6126 23.5706C12.9402 23.8519 13.5041 24.3025 13.8657 24.5718L14.5231 25.0615L14.6174 25.8573C14.6692 26.295 14.78 27.017 14.8635 27.4616C14.947 27.9064 15.0074 28.278 14.9978 28.2876C14.952 28.3335 13.6618 28.5655 13.1316 28.6232C12.4341 28.6992 11.3474 28.6615 10.9289 28.5467C9.95041 28.2784 9.56524 27.8233 9.62521 27.0064C9.68424 26.2021 10.1638 25.2141 11.0191 24.1346C11.4233 23.6244 11.9261 23.059 11.9755 23.059C11.9982 23.059 12.2849 23.2892 12.6126 23.5706ZM28.3761 23.4132C29.6506 24.8595 30.3014 26.0306 30.373 27.0064C30.433 27.8233 30.0478 28.2784 29.0693 28.5467C28.6508 28.6615 27.5641 28.6992 26.8666 28.6232C26.3467 28.5666 25.0465 28.3338 25.0021 28.2894C24.9935 28.2807 25.0539 27.909 25.1363 27.4634C25.2187 27.0177 25.3287 26.295 25.3807 25.8573L25.4751 25.0615L26.1325 24.5718C26.4941 24.3025 27.058 23.8519 27.3856 23.5706C27.7133 23.2892 28 23.059 28.0227 23.059C28.0454 23.059 28.2044 23.2184 28.3761 23.4132ZM16.4076 26.3077C16.435 26.3342 16.8305 26.5678 17.2864 26.8269L18.1153 27.2978L17.7586 27.4321C16.8979 27.7561 16.6771 27.8336 16.6152 27.8336C16.5789 27.8336 16.5336 27.7569 16.5145 27.6631C16.4831 27.5097 16.2748 26.3046 16.2741 26.2727C16.2734 26.2407 16.3623 26.264 16.4076 26.3077ZM23.7241 26.2727C23.7234 26.3046 23.5151 27.5097 23.4838 27.6631C23.4646 27.7569 23.4193 27.8336 23.383 27.8336C23.3212 27.8336 23.1003 27.7561 22.2396 27.4321L21.8829 27.2978L22.7118 26.8269C23.1677 26.5678 23.5632 26.3342 23.5906 26.3077C23.6359 26.264 23.7248 26.2407 23.7241 26.2727ZM20.7475 28.5477C21.1294 28.7095 21.7932 28.9683 22.2225 29.1226C22.6517 29.277 23.0116 29.412 23.0222 29.4226C23.0328 29.4332 22.9589 29.688 22.8579 29.9888C22.209 31.9216 21.3188 33.2698 20.4524 33.6317C20.2121 33.7322 19.7861 33.7322 19.5458 33.6317C18.6794 33.2698 17.7892 31.9216 17.1403 29.9888C17.0393 29.688 16.9654 29.4332 16.976 29.4226C16.9866 29.412 17.3465 29.277 17.7757 29.1226C18.205 28.9683 18.8632 28.7106 19.2383 28.5501C19.6135 28.3895 19.9502 28.2571 19.9867 28.2558C20.0231 28.2545 20.3654 28.3858 20.7475 28.5477Z" fill="white"/>
</svg>
