<svg width="40" height="40" viewBox="0 0 40 40" fill="none" xmlns="http://www.w3.org/2000/svg">
<path fill-rule="evenodd" clip-rule="evenodd" d="M4.46234 0.0591372C2.27991 0.425939 0.405929 2.3438 0.065646 4.55885C0.00924505 4.92597 -0.00999854 9.93211 0.00478617 20.3504L0.026533 35.6045L0.246739 36.2303C0.861439 37.9768 2.03483 39.1502 3.78138 39.7649L4.40719 39.9851H20.0133H35.6193L36.2452 39.7642C38.0509 39.1269 39.296 37.8276 39.8565 35.9956C39.9937 35.547 40 34.8383 40 19.9593V4.39231L39.7798 3.7665C39.1651 2.01995 37.9917 0.84656 36.2452 0.23186L35.6193 0.0116541L20.2479 0.000545998C11.5714 -0.00571208 4.69615 0.0197896 4.46234 0.0591372ZM21.5795 7.59488C23.1308 7.8014 24.3101 8.1732 25.7328 8.90415C31.6922 11.9661 34.1221 19.3514 31.146 25.3569C29.9281 27.8143 28.0685 29.7002 25.6404 30.9402C22.3704 32.6101 18.5189 32.7383 15.1099 31.2906L14.4699 31.0188L11.3159 31.7668C9.58129 32.1782 8.11197 32.5148 8.05087 32.5147C7.86603 32.5145 7.65364 32.2683 7.65224 32.0526C7.65153 31.941 7.93956 30.4445 8.29228 28.7272C8.92505 25.647 8.93201 25.6004 8.80873 25.2852C8.74004 25.1095 8.55402 24.6324 8.39538 24.225C7.40927 21.6923 7.35318 18.69 8.2412 15.9698C8.53486 15.0704 9.30061 13.5525 9.86564 12.7498C10.4728 11.8873 11.9455 10.4056 12.793 9.80461C15.3331 8.0033 18.5572 7.19248 21.5795 7.59488ZM19.4266 10.1941C17.967 10.3149 16.8098 10.6404 15.5544 11.2837C11.3307 13.4475 9.31344 18.3636 10.7824 22.913C10.9107 23.3106 11.1873 23.9761 11.3971 24.3919L11.7783 25.1478L11.3951 27.0088C11.1844 28.0324 11.022 28.9106 11.0342 28.9602C11.0493 29.0214 11.6613 28.9071 12.9338 28.6055L14.8112 28.1605L15.5544 28.5288C18.8507 30.1624 22.5157 29.932 25.5237 27.9022C29.0456 25.5257 30.5886 20.9114 29.2262 16.8302C28.2548 13.9207 25.9085 11.5889 23.025 10.6677C22.1895 10.4007 21.7591 10.3113 20.8738 10.2207C20.1386 10.1454 20.0372 10.1436 19.4266 10.1941ZM16.2954 14.0082C16.5984 14.1348 16.6677 14.2536 17.3583 15.8304C17.6149 16.4166 17.8229 17.0061 17.8229 17.1475C17.8229 17.3369 17.7109 17.5515 17.3927 17.9715C16.8701 18.6612 16.8394 18.911 17.205 19.4941C17.506 19.9742 18.9176 21.3733 19.7015 21.9684C20.9241 22.8967 21.4608 23.1183 21.9154 22.8823C22.0094 22.8335 22.3033 22.587 22.5684 22.3347C22.9612 21.9608 23.0989 21.8762 23.3115 21.8778C23.4551 21.8788 24.171 22.0528 24.9024 22.2646C26.0394 22.5937 26.2634 22.6844 26.4474 22.8897C26.6036 23.0641 26.6625 23.2128 26.6625 23.4327C26.6625 24.0729 25.5115 25.3795 24.6509 25.7162C24.0464 25.9528 22.6708 25.9719 21.8516 25.755C19.8719 25.2312 17.4845 23.5554 15.7393 21.4648C14.3603 19.8128 13.7983 18.529 13.7957 17.0244C13.7944 16.249 13.8092 16.1713 14.0546 15.6727C14.2235 15.3294 14.504 14.952 14.8543 14.5967C15.5599 13.8813 15.7783 13.7921 16.2954 14.0082Z" fill="#FF003C"/>
</svg>
