<svg width="40" height="41" viewBox="0 0 40 41" fill="none" xmlns="http://www.w3.org/2000/svg">
<rect y="0.959991" width="40" height="40.006" rx="4" fill="black"/>
<path fill-rule="evenodd" clip-rule="evenodd" d="M25.3789 9.86114L18.9219 10.7564V15.5741V20.3917H25.4609H32V14.673C32 9.25561 31.9957 8.95458 31.918 8.96006C31.8729 8.96325 28.9303 9.36872 25.3789 9.86114ZM12.7695 11.595L8 12.2571V16.3244V20.3917H12.9219H17.8438V15.6574V10.923L17.6914 10.928C17.6076 10.9308 15.3928 11.2309 12.7695 11.595ZM8 25.6309V29.6512L12.8633 30.3198C15.5381 30.6876 17.753 30.9878 17.7852 30.987C17.8316 30.9858 17.8438 30.016 17.8438 26.298V21.6105H12.9219H8V25.6309ZM18.9219 26.3813V31.152L25.332 32.0341C28.8576 32.5193 31.8002 32.9274 31.8711 32.9411L32 32.966V27.2882V21.6105H25.4609H18.9219V26.3813Z" fill="white"/>
</svg>
